<svg width="2302" height="610" viewBox="0 0 2302 610" fill="none" xmlns="http://www.w3.org/2000/svg">
<g clip-path="url(#clip0_166_3005)">
<rect width="2302" height="610" fill="url(#paint0_linear_166_3005)"/>
<g filter="url(#filter0_f_166_3005)">
<path d="M1475 87.6435L1433.74 63.8047L1392.51 87.6435L1351.26 111.456L1310 135.268L1351.26 159.081L1392.51 182.893L1433.74 159.081L1475 135.268L1516.25 111.456L1475 87.6435Z" stroke="#4579FF" stroke-width="6" stroke-miterlimit="10" stroke-linejoin="round"/>
<path d="M1475 135.258L1433.74 159.07L1392.52 182.883V230.507V278.132V325.757V373.408L1433.74 349.596L1475 325.757V278.132V230.507L1516.26 206.695V159.07V111.445L1475 135.258Z" stroke="#4579FF" stroke-width="6" stroke-miterlimit="10" stroke-linejoin="round"/>
<path d="M1640 373.417L1598.74 349.604L1557.48 373.417L1516.26 349.604L1475 325.766L1433.74 349.604L1392.52 373.417L1433.74 397.229L1475 421.042L1516.26 444.854L1557.48 468.667L1598.74 444.854L1640 421.042L1681.25 397.229L1640 373.417Z" stroke="#4579FF" stroke-width="6" stroke-miterlimit="10" stroke-linejoin="round"/>
<path d="M1516.25 444.854L1475 421.041L1433.74 397.229L1392.51 373.416V325.765V278.14V230.515V182.89L1351.26 159.078L1310 135.266V182.89V230.515V278.14V325.765V373.416V421.041L1351.26 444.854L1392.51 468.666L1433.74 492.478L1475 516.291L1516.25 540.103L1557.48 563.916V516.291V468.666L1516.25 444.854Z" stroke="#4579FF" stroke-width="6" stroke-miterlimit="10" stroke-linejoin="round"/>
<path d="M1639.99 182.891L1598.73 159.078L1557.48 182.891L1516.25 206.703L1474.99 230.515L1516.25 254.328L1557.48 278.14L1598.73 254.328L1639.99 230.515L1681.24 206.703L1639.99 182.891Z" stroke="#4579FF" stroke-width="6" stroke-miterlimit="10" stroke-linejoin="round"/>
<path d="M1516.25 254.332L1474.99 230.52V278.144V325.769L1516.25 349.608L1557.48 373.421V325.769V278.144L1516.25 254.332Z" stroke="#4579FF" stroke-width="6" stroke-miterlimit="10" stroke-linejoin="round"/>
<path d="M1639.99 230.516L1598.73 254.328L1557.48 278.14V325.765V373.417L1598.73 349.604L1639.99 325.765L1681.24 301.953V254.328V206.703L1639.99 230.516Z" stroke="#4579FF" stroke-width="6" stroke-miterlimit="10" stroke-linejoin="round"/>
<path d="M1639.99 421.047L1598.73 444.859L1557.48 468.672V516.296V563.921L1598.73 540.109L1639.99 516.296L1681.24 492.484V444.859V397.234L1639.99 421.047Z" stroke="#4579FF" stroke-width="6" stroke-miterlimit="10" stroke-linejoin="round"/>
<path d="M1722.6 183.472L1681.32 207.284L1722.6 231.123L1763.88 254.962V207.284V159.633L1722.6 183.472Z" stroke="#4579FF" stroke-width="6" stroke-miterlimit="10" stroke-linejoin="round"/>
<path d="M1722.6 40.456L1681.32 16.6172V64.2949V111.946L1722.6 135.785L1763.88 159.624V111.946V64.2949L1722.6 40.456Z" stroke="#4579FF" stroke-width="6" stroke-miterlimit="10" stroke-linejoin="round"/>
<path d="M1846.45 16.6279L1805.16 40.4668L1763.88 64.3056V111.957V159.635L1805.16 135.796L1846.45 111.957L1887.73 88.1181V40.4668V-7.21094L1846.45 16.6279Z" stroke="#4579FF" stroke-width="6" stroke-miterlimit="10" stroke-linejoin="round"/>
<path d="M1929.01 159.636L1887.73 183.475L1846.45 207.287V254.965V302.642L1887.73 278.804L1929.01 254.965L1970.29 231.126V183.475V135.797L1929.01 159.636Z" stroke="#4579FF" stroke-width="6" stroke-miterlimit="10" stroke-linejoin="round"/>
<path d="M1805.16 183.472L1763.88 159.633V207.284V254.962L1805.16 278.801L1846.45 302.64V254.962V207.284L1805.16 183.472Z" stroke="#4579FF" stroke-width="6" stroke-miterlimit="10" stroke-linejoin="round"/>
<path d="M1805.16 278.8L1763.88 254.961V302.639V350.29L1805.16 326.451L1846.45 302.639L1805.16 278.8Z" stroke="#4579FF" stroke-width="6" stroke-miterlimit="10" stroke-linejoin="round"/>
<path d="M1722.6 231.12L1681.32 207.281V254.959V302.637L1722.6 326.449L1763.88 350.288V302.637V254.959L1722.6 231.12Z" stroke="#4579FF" stroke-width="6" stroke-miterlimit="10" stroke-linejoin="round"/>
<path d="M1929.01 111.948L1887.73 88.1094L1846.45 111.948L1805.16 135.787L1763.88 159.626L1805.16 183.465L1846.45 207.277L1887.73 183.465L1929.01 159.626L1970.29 135.787L1929.01 111.948Z" stroke="#4579FF" stroke-width="6" stroke-miterlimit="10" stroke-linejoin="round"/>
<path d="M1846.44 -31.0548L1805.16 -54.8672L1763.88 -31.0548L1722.6 -7.2159L1681.32 16.623L1722.6 40.4618L1763.88 64.3007L1805.16 40.4618L1846.44 16.623L1887.73 -7.2159L1846.44 -31.0548Z" stroke="#4579FF" stroke-width="6" stroke-miterlimit="10" stroke-linejoin="round"/>
<path d="M2092.27 397.839L2050.99 374L2009.7 397.839L1968.42 421.678L2009.7 445.517L2050.99 469.329L2092.27 493.168L2133.55 517.007V469.329V421.678L2092.27 397.839Z" stroke="#4579FF" stroke-width="6" stroke-miterlimit="10" stroke-linejoin="round"/>
<path d="M2298.68 278.668L2257.4 254.829L2216.11 230.99L2174.83 207.178L2133.55 183.339L2092.27 159.5L2050.99 183.339L2009.7 207.178L1968.42 230.99L2009.7 254.829L2050.99 278.668L2092.27 302.507L2133.55 326.346L2174.83 350.158L2216.11 373.997L2257.4 350.158L2298.68 326.346L2339.96 302.507L2298.68 278.668Z" stroke="#4579FF" stroke-width="6" stroke-miterlimit="10" stroke-linejoin="round"/>
<path d="M2298.68 326.347L2257.4 350.159L2216.11 373.998V421.676V469.327V517.005V564.682V612.334V660.011L2257.4 636.173L2298.68 612.334L2339.96 588.495V540.844V493.166V445.515V397.837V350.159V302.508L2298.68 326.347Z" stroke="#4579FF" stroke-width="6" stroke-miterlimit="10" stroke-linejoin="round"/>
<path d="M2174.83 350.155L2133.55 326.316L2092.27 302.478L2050.99 278.639L2009.7 254.8L1968.42 230.961V326.29L2009.7 350.129L2050.99 373.968L2092.27 397.807L2133.55 421.645V516.974L2092.27 493.136L2050.99 469.297L2009.7 445.458L1968.42 421.619V516.948L2009.7 540.787L2050.99 564.626L2092.27 588.465L2133.55 612.303L2174.83 636.142L2216.11 659.981V373.968L2174.83 350.129V350.155Z" stroke="#4579FF" stroke-width="6" stroke-miterlimit="10" stroke-linejoin="round"/>
<path d="M1802.99 515.141L1761.71 538.979L1802.99 562.818L1844.27 586.657V538.979V491.328L1802.99 515.141Z" stroke="#4579FF" stroke-width="6" stroke-miterlimit="10" stroke-linejoin="round"/>
<path d="M1885.56 610.495L1844.28 586.656V634.308V681.985L1885.56 658.146L1926.85 634.308L1885.56 610.495Z" stroke="#4579FF" stroke-width="6" stroke-miterlimit="10" stroke-linejoin="round"/>
<path d="M1885.56 705.83L1844.27 681.991V634.313V586.662L1802.99 562.823L1761.71 538.984V586.662V634.313V681.991V729.669L1802.99 753.481L1844.27 777.32L1885.56 801.159L1926.84 824.998V777.32V729.669L1885.56 705.83Z" stroke="#4579FF" stroke-width="6" stroke-miterlimit="10" stroke-linejoin="round"/>
<path d="M2091.97 491.329L2050.69 467.49L2009.41 443.651L1968.13 419.812L1926.85 443.651L1885.56 467.49L1844.28 491.329L1885.56 515.142L1926.85 538.98L1968.13 562.819L2009.41 586.658L2050.69 562.819L2091.97 538.98L2133.23 515.142L2091.97 491.329Z" stroke="#4579FF" stroke-width="6" stroke-miterlimit="10" stroke-linejoin="round"/>
<path d="M1968.13 562.818L1926.85 538.979L1885.56 515.141L1844.28 491.328V538.979V586.657L1885.56 610.496L1926.85 634.308V681.986V729.664L1968.13 753.476L2009.41 777.315V729.664V681.986V634.308V586.657L1968.13 562.818Z" stroke="#4579FF" stroke-width="6" stroke-miterlimit="10" stroke-linejoin="round"/>
<path d="M2091.97 538.979L2050.68 562.818L2009.4 586.657V634.308V681.986V729.664V777.315L2050.68 753.476L2091.97 729.664L2133.22 705.825V658.147V610.496V562.818V515.141L2091.97 538.979Z" stroke="#4579FF" stroke-width="6" stroke-miterlimit="10" stroke-linejoin="round"/>
<path d="M2051.79 -82.1095L2010.54 -105.922V-58.297V-10.6722L2051.79 13.1666L2093.02 36.9791V-10.6722V-58.297L2051.79 -82.1095Z" stroke="#4579FF" stroke-width="6" stroke-miterlimit="10" stroke-linejoin="round"/>
<path d="M2175.52 -105.926L2134.27 -82.1134L2093.01 -58.3009V-10.6761V36.9752L2134.27 13.1627L2175.52 -10.6761L2216.78 -34.4886V-82.1134V-129.738L2175.52 -105.926Z" stroke="#4579FF" stroke-width="6" stroke-miterlimit="10" stroke-linejoin="round"/>
</g>
<path d="M1477 89.6435L1435.74 65.8047L1394.51 89.6435L1353.26 113.456L1312 137.268L1353.26 161.081L1394.51 184.893L1435.74 161.081L1477 137.268L1518.25 113.456L1477 89.6435Z" stroke="#4579FF" stroke-width="6" stroke-miterlimit="10" stroke-linejoin="round"/>
<path d="M1477 137.258L1435.74 161.07L1394.52 184.883V232.507V280.132V327.757V375.408L1435.74 351.596L1477 327.757V280.132V232.507L1518.26 208.695V161.07V113.445L1477 137.258Z" stroke="#4579FF" stroke-width="6" stroke-miterlimit="10" stroke-linejoin="round"/>
<path d="M1642 375.417L1600.74 351.604L1559.48 375.417L1518.26 351.604L1477 327.766L1435.74 351.604L1394.52 375.417L1435.74 399.229L1477 423.042L1518.26 446.854L1559.48 470.667L1600.74 446.854L1642 423.042L1683.25 399.229L1642 375.417Z" stroke="#4579FF" stroke-width="6" stroke-miterlimit="10" stroke-linejoin="round"/>
<path d="M1518.25 446.854L1477 423.041L1435.74 399.229L1394.51 375.416V327.765V280.14V232.515V184.89L1353.26 161.078L1312 137.266V184.89V232.515V280.14V327.765V375.416V423.041L1353.26 446.854L1394.51 470.666L1435.74 494.478L1477 518.291L1518.25 542.103L1559.48 565.916V518.291V470.666L1518.25 446.854Z" stroke="#4579FF" stroke-width="6" stroke-miterlimit="10" stroke-linejoin="round"/>
<path d="M1641.99 184.891L1600.73 161.078L1559.48 184.891L1518.25 208.703L1476.99 232.515L1518.25 256.328L1559.48 280.14L1600.73 256.328L1641.99 232.515L1683.24 208.703L1641.99 184.891Z" stroke="#4579FF" stroke-width="6" stroke-miterlimit="10" stroke-linejoin="round"/>
<path d="M1518.25 256.332L1476.99 232.52V280.144V327.769L1518.25 351.608L1559.48 375.421V327.769V280.144L1518.25 256.332Z" stroke="#4579FF" stroke-width="6" stroke-miterlimit="10" stroke-linejoin="round"/>
<path d="M1641.99 232.516L1600.73 256.328L1559.48 280.14V327.765V375.417L1600.73 351.604L1641.99 327.765L1683.24 303.953V256.328V208.703L1641.99 232.516Z" stroke="#4579FF" stroke-width="6" stroke-miterlimit="10" stroke-linejoin="round"/>
<path d="M1641.99 423.047L1600.73 446.859L1559.48 470.672V518.296V565.921L1600.73 542.109L1641.99 518.296L1683.24 494.484V446.859V399.234L1641.99 423.047Z" stroke="#4579FF" stroke-width="6" stroke-miterlimit="10" stroke-linejoin="round"/>
<path d="M1724.6 185.472L1683.32 209.284L1724.6 233.123L1765.88 256.962V209.284V161.633L1724.6 185.472Z" stroke="#4579FF" stroke-width="6" stroke-miterlimit="10" stroke-linejoin="round"/>
<path d="M1724.6 42.456L1683.32 18.6172V66.2949V113.946L1724.6 137.785L1765.88 161.624V113.946V66.2949L1724.6 42.456Z" stroke="#4579FF" stroke-width="6" stroke-miterlimit="10" stroke-linejoin="round"/>
<path d="M1848.45 18.6279L1807.16 42.4668L1765.88 66.3056V113.957V161.635L1807.16 137.796L1848.45 113.957L1889.73 90.1181V42.4668V-5.21094L1848.45 18.6279Z" stroke="#4579FF" stroke-width="6" stroke-miterlimit="10" stroke-linejoin="round"/>
<path d="M1931.01 161.636L1889.73 185.475L1848.45 209.287V256.965V304.642L1889.73 280.804L1931.01 256.965L1972.29 233.126V185.475V137.797L1931.01 161.636Z" stroke="#4579FF" stroke-width="6" stroke-miterlimit="10" stroke-linejoin="round"/>
<path d="M1807.16 185.472L1765.88 161.633V209.284V256.962L1807.16 280.801L1848.45 304.64V256.962V209.284L1807.16 185.472Z" stroke="#4579FF" stroke-width="6" stroke-miterlimit="10" stroke-linejoin="round"/>
<path d="M1807.16 280.8L1765.88 256.961V304.639V352.29L1807.16 328.451L1848.45 304.639L1807.16 280.8Z" stroke="#4579FF" stroke-width="6" stroke-miterlimit="10" stroke-linejoin="round"/>
<path d="M1724.6 233.12L1683.32 209.281V256.959V304.637L1724.6 328.449L1765.88 352.288V304.637V256.959L1724.6 233.12Z" stroke="#4579FF" stroke-width="6" stroke-miterlimit="10" stroke-linejoin="round"/>
<path d="M1931.01 113.948L1889.73 90.1094L1848.45 113.948L1807.16 137.787L1765.88 161.626L1807.16 185.465L1848.45 209.277L1889.73 185.465L1931.01 161.626L1972.29 137.787L1931.01 113.948Z" stroke="#4579FF" stroke-width="6" stroke-miterlimit="10" stroke-linejoin="round"/>
<path d="M1848.44 -29.0548L1807.16 -52.8672L1765.88 -29.0548L1724.6 -5.2159L1683.32 18.623L1724.6 42.4618L1765.88 66.3007L1807.16 42.4618L1848.44 18.623L1889.73 -5.2159L1848.44 -29.0548Z" stroke="#4579FF" stroke-width="6" stroke-miterlimit="10" stroke-linejoin="round"/>
<path d="M2094.27 399.839L2052.99 376L2011.7 399.839L1970.42 423.678L2011.7 447.517L2052.99 471.329L2094.27 495.168L2135.55 519.007V471.329V423.678L2094.27 399.839Z" stroke="#4579FF" stroke-width="6" stroke-miterlimit="10" stroke-linejoin="round"/>
<path d="M2300.68 280.668L2259.4 256.829L2218.11 232.99L2176.83 209.178L2135.55 185.339L2094.27 161.5L2052.99 185.339L2011.7 209.178L1970.42 232.99L2011.7 256.829L2052.99 280.668L2094.27 304.507L2135.55 328.346L2176.83 352.158L2218.11 375.997L2259.4 352.158L2300.68 328.346L2341.96 304.507L2300.68 280.668Z" stroke="#4579FF" stroke-width="6" stroke-miterlimit="10" stroke-linejoin="round"/>
<path d="M2300.68 328.347L2259.4 352.159L2218.11 375.998V423.676V471.327V519.005V566.682V614.334V662.011L2259.4 638.173L2300.68 614.334L2341.96 590.495V542.844V495.166V447.515V399.837V352.159V304.508L2300.68 328.347Z" stroke="#4579FF" stroke-width="6" stroke-miterlimit="10" stroke-linejoin="round"/>
<path d="M2176.83 352.155L2135.55 328.316L2094.27 304.478L2052.99 280.639L2011.7 256.8L1970.42 232.961V328.29L2011.7 352.129L2052.99 375.968L2094.27 399.807L2135.55 423.645V518.974L2094.27 495.136L2052.99 471.297L2011.7 447.458L1970.42 423.619V518.948L2011.7 542.787L2052.99 566.626L2094.27 590.465L2135.55 614.303L2176.83 638.142L2218.11 661.981V375.968L2176.83 352.129V352.155Z" stroke="#4579FF" stroke-width="6" stroke-miterlimit="10" stroke-linejoin="round"/>
<path d="M1804.99 517.141L1763.71 540.979L1804.99 564.818L1846.27 588.657V540.979V493.328L1804.99 517.141Z" stroke="#4579FF" stroke-width="6" stroke-miterlimit="10" stroke-linejoin="round"/>
<path d="M1887.56 612.495L1846.28 588.656V636.308V683.985L1887.56 660.146L1928.85 636.308L1887.56 612.495Z" stroke="#4579FF" stroke-width="6" stroke-miterlimit="10" stroke-linejoin="round"/>
<path d="M1887.56 707.83L1846.27 683.991V636.313V588.662L1804.99 564.823L1763.71 540.984V588.662V636.313V683.991V731.669L1804.99 755.481L1846.27 779.32L1887.56 803.159L1928.84 826.998V779.32V731.669L1887.56 707.83Z" stroke="#4579FF" stroke-width="6" stroke-miterlimit="10" stroke-linejoin="round"/>
<path d="M2093.97 493.329L2052.69 469.49L2011.41 445.651L1970.13 421.812L1928.85 445.651L1887.56 469.49L1846.28 493.329L1887.56 517.142L1928.85 540.98L1970.13 564.819L2011.41 588.658L2052.69 564.819L2093.97 540.98L2135.23 517.142L2093.97 493.329Z" stroke="#4579FF" stroke-width="6" stroke-miterlimit="10" stroke-linejoin="round"/>
<path d="M1970.13 564.818L1928.85 540.979L1887.56 517.141L1846.28 493.328V540.979V588.657L1887.56 612.496L1928.85 636.308V683.986V731.664L1970.13 755.476L2011.41 779.315V731.664V683.986V636.308V588.657L1970.13 564.818Z" stroke="#4579FF" stroke-width="6" stroke-miterlimit="10" stroke-linejoin="round"/>
<path d="M2093.97 540.979L2052.68 564.818L2011.4 588.657V636.308V683.986V731.664V779.315L2052.68 755.476L2093.97 731.664L2135.22 707.825V660.147V612.496V564.818V517.141L2093.97 540.979Z" stroke="#4579FF" stroke-width="6" stroke-miterlimit="10" stroke-linejoin="round"/>
<path d="M2053.79 -80.1095L2012.54 -103.922V-56.297V-8.67218L2053.79 15.1666L2095.02 38.9791V-8.67218V-56.297L2053.79 -80.1095Z" stroke="#4579FF" stroke-width="6" stroke-miterlimit="10" stroke-linejoin="round"/>
<path d="M2177.52 -103.93L2136.27 -80.1173L2095.01 -56.3049V-8.68002V38.9713L2136.27 15.1588L2177.52 -8.68002L2218.78 -32.4925V-80.1173V-127.742L2177.52 -103.93Z" stroke="#4579FF" stroke-width="6" stroke-miterlimit="10" stroke-linejoin="round"/>
<g filter="url(#filter1_f_166_3005)">
<path d="M1891 281.644L1849.74 257.805L1808.51 281.644L1767.26 305.456L1726 329.268L1767.26 353.081L1808.51 376.893L1849.74 353.081L1891 329.268L1932.25 305.456L1891 281.644Z" stroke="#FF85FF" stroke-width="6" stroke-miterlimit="10" stroke-linejoin="round"/>
<path d="M1891 329.258L1849.74 353.07L1808.52 376.883V424.507V472.132V519.757V567.408L1849.74 543.596L1891 519.757V472.132V424.507L1932.26 400.695V353.07V305.445L1891 329.258Z" stroke="#FF85FF" stroke-width="6" stroke-miterlimit="10" stroke-linejoin="round"/>
<path d="M2056 567.417L2014.74 543.604L1973.48 567.417L1932.26 543.604L1891 519.766L1849.74 543.604L1808.52 567.417L1849.74 591.229L1891 615.042L1932.26 638.854L1973.48 662.667L2014.74 638.854L2056 615.042L2097.25 591.229L2056 567.417Z" stroke="#FF85FF" stroke-width="6" stroke-miterlimit="10" stroke-linejoin="round"/>
<path d="M1932.25 638.854L1891 615.041L1849.74 591.229L1808.51 567.416V519.765V472.14V424.515V376.89L1767.26 353.078L1726 329.266V376.89V424.515V472.14V519.765V567.416V615.041L1767.26 638.854L1808.51 662.666L1849.74 686.478L1891 710.291L1932.25 734.103L1973.48 757.916V710.291V662.666L1932.25 638.854Z" stroke="#FF85FF" stroke-width="6" stroke-miterlimit="10" stroke-linejoin="round"/>
<path d="M2055.99 376.891L2014.73 353.078L1973.48 376.891L1932.25 400.703L1890.99 424.515L1932.25 448.328L1973.48 472.14L2014.73 448.328L2055.99 424.515L2097.24 400.703L2055.99 376.891Z" stroke="#FF85FF" stroke-width="6" stroke-miterlimit="10" stroke-linejoin="round"/>
<path d="M1932.25 448.332L1890.99 424.52V472.144V519.769L1932.25 543.608L1973.48 567.421V519.769V472.144L1932.25 448.332Z" stroke="#FF85FF" stroke-width="6" stroke-miterlimit="10" stroke-linejoin="round"/>
<path d="M2055.99 424.516L2014.73 448.328L1973.48 472.14V519.765V567.417L2014.73 543.604L2055.99 519.765L2097.24 495.953V448.328V400.703L2055.99 424.516Z" stroke="#FF85FF" stroke-width="6" stroke-miterlimit="10" stroke-linejoin="round"/>
<path d="M2055.99 615.047L2014.73 638.859L1973.48 662.672V710.296V757.921L2014.73 734.109L2055.99 710.296L2097.24 686.484V638.859V591.234L2055.99 615.047Z" stroke="#FF85FF" stroke-width="6" stroke-miterlimit="10" stroke-linejoin="round"/>
<path d="M2138.6 377.472L2097.32 401.284L2138.6 425.123L2179.88 448.962V401.284V353.633L2138.6 377.472Z" stroke="#FF85FF" stroke-width="6" stroke-miterlimit="10" stroke-linejoin="round"/>
<path d="M2138.6 234.456L2097.32 210.617V258.295V305.946L2138.6 329.785L2179.88 353.624V305.946V258.295L2138.6 234.456Z" stroke="#FF85FF" stroke-width="6" stroke-miterlimit="10" stroke-linejoin="round"/>
<path d="M2262.45 210.628L2221.16 234.467L2179.88 258.306V305.957V353.635L2221.16 329.796L2262.45 305.957L2303.73 282.118V234.467V186.789L2262.45 210.628Z" stroke="#FF85FF" stroke-width="6" stroke-miterlimit="10" stroke-linejoin="round"/>
<path d="M2345.01 353.636L2303.73 377.475L2262.45 401.287V448.965V496.642L2303.73 472.804L2345.01 448.965L2386.29 425.126V377.475V329.797L2345.01 353.636Z" stroke="#FF85FF" stroke-width="6" stroke-miterlimit="10" stroke-linejoin="round"/>
<path d="M2221.16 377.472L2179.88 353.633V401.284V448.962L2221.16 472.801L2262.45 496.64V448.962V401.284L2221.16 377.472Z" stroke="#FF85FF" stroke-width="6" stroke-miterlimit="10" stroke-linejoin="round"/>
<path d="M2221.16 472.8L2179.88 448.961V496.639V544.29L2221.16 520.451L2262.45 496.639L2221.16 472.8Z" stroke="#FF85FF" stroke-width="6" stroke-miterlimit="10" stroke-linejoin="round"/>
<path d="M2138.6 425.12L2097.32 401.281V448.959V496.637L2138.6 520.449L2179.88 544.288V496.637V448.959L2138.6 425.12Z" stroke="#FF85FF" stroke-width="6" stroke-miterlimit="10" stroke-linejoin="round"/>
<path d="M2345.01 305.948L2303.73 282.109L2262.45 305.948L2221.16 329.787L2179.88 353.626L2221.16 377.465L2262.45 401.277L2303.73 377.465L2345.01 353.626L2386.29 329.787L2345.01 305.948Z" stroke="#FF85FF" stroke-width="6" stroke-miterlimit="10" stroke-linejoin="round"/>
<path d="M2262.44 162.945L2221.16 139.133L2179.88 162.945L2138.6 186.784L2097.32 210.623L2138.6 234.462L2179.88 258.301L2221.16 234.462L2262.44 210.623L2303.73 186.784L2262.44 162.945Z" stroke="#FF85FF" stroke-width="6" stroke-miterlimit="10" stroke-linejoin="round"/>
<path d="M1889.78 18.0107L1848.5 41.8496L1889.78 65.6884L1931.06 89.5273V41.8496V-5.82812L1889.78 18.0107Z" stroke="#FF85FF" stroke-width="6" stroke-miterlimit="10" stroke-linejoin="round"/>
<path d="M2178.72 -53.4815L2137.44 -29.6426L2096.16 -5.83017V41.8476V89.5253L2137.44 65.6864L2178.72 41.8476L2220.01 18.0087V-29.6426V-77.3203L2178.72 -53.4815Z" stroke="#FF85FF" stroke-width="6" stroke-miterlimit="10" stroke-linejoin="round"/>
<path d="M2054.88 65.6826L2013.59 41.8438V89.5215V137.173L2054.88 113.334L2096.16 89.5215L2054.88 65.6826Z" stroke="#FF85FF" stroke-width="6" stroke-miterlimit="10" stroke-linejoin="round"/>
<path d="M1972.32 18.0107L1931.07 -5.82812V41.8496V89.5273L1972.32 113.34L2013.6 137.179V89.5273V41.8496L1972.32 18.0107Z" stroke="#FF85FF" stroke-width="6" stroke-miterlimit="10" stroke-linejoin="round"/>
<path d="M1972.32 113.328L1931.07 89.5156V137.167V184.845L1972.32 161.006L2013.6 137.167L1972.32 113.328Z" stroke="#FF85FF" stroke-width="6" stroke-miterlimit="10" stroke-linejoin="round"/>
<path d="M1889.78 65.6826L1848.5 41.8438V89.5215V137.173L1889.78 161.012L1931.06 184.85V137.173V89.5215L1889.78 65.6826Z" stroke="#FF85FF" stroke-width="6" stroke-miterlimit="10" stroke-linejoin="round"/>
<path d="M1972.32 -29.6455L1931.07 -5.83309L1972.32 18.0058L2013.6 41.8446V-5.83309V-53.4844L1972.32 -29.6455Z" stroke="#FF85FF" stroke-width="6" stroke-miterlimit="10" stroke-linejoin="round"/>
<path d="M2054.88 -29.6455L2013.59 -53.4844V-5.83309V41.8446L2054.88 65.6835L2096.16 89.5223V41.8446V-5.83309L2054.88 -29.6455Z" stroke="#FF85FF" stroke-width="6" stroke-miterlimit="10" stroke-linejoin="round"/>
</g>
<path d="M1891 281.644L1849.74 257.805L1808.51 281.644L1767.26 305.456L1726 329.268L1767.26 353.081L1808.51 376.893L1849.74 353.081L1891 329.268L1932.25 305.456L1891 281.644Z" stroke="#FF85FF" stroke-width="6" stroke-miterlimit="10" stroke-linejoin="round"/>
<path d="M1891 281.644L1849.74 257.805L1808.51 281.644L1767.26 305.456L1726 329.268L1767.26 353.081L1808.51 376.893L1849.74 353.081L1891 329.268L1932.25 305.456L1891 281.644Z" stroke="#FF85FF" stroke-width="6" stroke-miterlimit="10" stroke-linejoin="round"/>
<path d="M1891 329.258L1849.74 353.07L1808.52 376.883V424.507V472.132V519.757V567.408L1849.74 543.596L1891 519.757V472.132V424.507L1932.26 400.695V353.07V305.445L1891 329.258Z" stroke="#FF85FF" stroke-width="6" stroke-miterlimit="10" stroke-linejoin="round"/>
<path d="M1891 329.258L1849.74 353.07L1808.52 376.883V424.507V472.132V519.757V567.408L1849.74 543.596L1891 519.757V472.132V424.507L1932.26 400.695V353.07V305.445L1891 329.258Z" stroke="#FF85FF" stroke-width="6" stroke-miterlimit="10" stroke-linejoin="round"/>
<path d="M2056 567.417L2014.74 543.604L1973.48 567.417L1932.26 543.604L1891 519.766L1849.74 543.604L1808.52 567.417L1849.74 591.229L1891 615.042L1932.26 638.854L1973.48 662.667L2014.74 638.854L2056 615.042L2097.25 591.229L2056 567.417Z" stroke="#FF85FF" stroke-width="6" stroke-miterlimit="10" stroke-linejoin="round"/>
<path d="M2056 567.417L2014.74 543.604L1973.48 567.417L1932.26 543.604L1891 519.766L1849.74 543.604L1808.52 567.417L1849.74 591.229L1891 615.042L1932.26 638.854L1973.48 662.667L2014.74 638.854L2056 615.042L2097.25 591.229L2056 567.417Z" stroke="#FF85FF" stroke-width="6" stroke-miterlimit="10" stroke-linejoin="round"/>
<path d="M1932.25 638.854L1891 615.041L1849.74 591.229L1808.51 567.416V519.765V472.14V424.515V376.89L1767.26 353.078L1726 329.266V376.89V424.515V472.14V519.765V567.416V615.041L1767.26 638.854L1808.51 662.666L1849.74 686.478L1891 710.291L1932.25 734.103L1973.48 757.916V710.291V662.666L1932.25 638.854Z" stroke="#FF85FF" stroke-width="6" stroke-miterlimit="10" stroke-linejoin="round"/>
<path d="M1932.25 638.854L1891 615.041L1849.74 591.229L1808.51 567.416V519.765V472.14V424.515V376.89L1767.26 353.078L1726 329.266V376.89V424.515V472.14V519.765V567.416V615.041L1767.26 638.854L1808.51 662.666L1849.74 686.478L1891 710.291L1932.25 734.103L1973.48 757.916V710.291V662.666L1932.25 638.854Z" stroke="#FF85FF" stroke-width="6" stroke-miterlimit="10" stroke-linejoin="round"/>
<path d="M2055.99 376.891L2014.73 353.078L1973.48 376.891L1932.25 400.703L1890.99 424.515L1932.25 448.328L1973.48 472.14L2014.73 448.328L2055.99 424.515L2097.24 400.703L2055.99 376.891Z" stroke="#FF85FF" stroke-width="6" stroke-miterlimit="10" stroke-linejoin="round"/>
<path d="M2055.99 376.891L2014.73 353.078L1973.48 376.891L1932.25 400.703L1890.99 424.515L1932.25 448.328L1973.48 472.14L2014.73 448.328L2055.99 424.515L2097.24 400.703L2055.99 376.891Z" stroke="#FF85FF" stroke-width="6" stroke-miterlimit="10" stroke-linejoin="round"/>
<path d="M1932.25 448.332L1890.99 424.52V472.144V519.769L1932.25 543.608L1973.48 567.421V519.769V472.144L1932.25 448.332Z" stroke="#FF85FF" stroke-width="6" stroke-miterlimit="10" stroke-linejoin="round"/>
<path d="M1932.25 448.332L1890.99 424.52V472.144V519.769L1932.25 543.608L1973.48 567.421V519.769V472.144L1932.25 448.332Z" stroke="#FF85FF" stroke-width="6" stroke-miterlimit="10" stroke-linejoin="round"/>
<path d="M2055.99 424.516L2014.73 448.328L1973.48 472.14V519.765V567.417L2014.73 543.604L2055.99 519.765L2097.24 495.953V448.328V400.703L2055.99 424.516Z" stroke="#FF85FF" stroke-width="6" stroke-miterlimit="10" stroke-linejoin="round"/>
<path d="M2055.99 424.516L2014.73 448.328L1973.48 472.14V519.765V567.417L2014.73 543.604L2055.99 519.765L2097.24 495.953V448.328V400.703L2055.99 424.516Z" stroke="#FF85FF" stroke-width="6" stroke-miterlimit="10" stroke-linejoin="round"/>
<path d="M2055.99 615.047L2014.73 638.859L1973.48 662.672V710.296V757.921L2014.73 734.109L2055.99 710.296L2097.24 686.484V638.859V591.234L2055.99 615.047Z" stroke="#FF85FF" stroke-width="6" stroke-miterlimit="10" stroke-linejoin="round"/>
<path d="M2055.99 615.047L2014.73 638.859L1973.48 662.672V710.296V757.921L2014.73 734.109L2055.99 710.296L2097.24 686.484V638.859V591.234L2055.99 615.047Z" stroke="#FF85FF" stroke-width="6" stroke-miterlimit="10" stroke-linejoin="round"/>
<path d="M2138.6 377.472L2097.32 401.284L2138.6 425.123L2179.88 448.962V401.284V353.633L2138.6 377.472Z" stroke="#FF85FF" stroke-width="6" stroke-miterlimit="10" stroke-linejoin="round"/>
<path d="M2138.6 377.472L2097.32 401.284L2138.6 425.123L2179.88 448.962V401.284V353.633L2138.6 377.472Z" stroke="#FF85FF" stroke-width="6" stroke-miterlimit="10" stroke-linejoin="round"/>
<path d="M2138.6 234.456L2097.32 210.617V258.295V305.946L2138.6 329.785L2179.88 353.624V305.946V258.295L2138.6 234.456Z" stroke="#FF85FF" stroke-width="6" stroke-miterlimit="10" stroke-linejoin="round"/>
<path d="M2138.6 234.456L2097.32 210.617V258.295V305.946L2138.6 329.785L2179.88 353.624V305.946V258.295L2138.6 234.456Z" stroke="#FF85FF" stroke-width="6" stroke-miterlimit="10" stroke-linejoin="round"/>
<path d="M2262.45 210.628L2221.16 234.467L2179.88 258.306V305.957V353.635L2221.16 329.796L2262.45 305.957L2303.73 282.118V234.467V186.789L2262.45 210.628Z" stroke="#FF85FF" stroke-width="6" stroke-miterlimit="10" stroke-linejoin="round"/>
<path d="M2262.45 210.628L2221.16 234.467L2179.88 258.306V305.957V353.635L2221.16 329.796L2262.45 305.957L2303.73 282.118V234.467V186.789L2262.45 210.628Z" stroke="#FF85FF" stroke-width="6" stroke-miterlimit="10" stroke-linejoin="round"/>
<path d="M2345.01 353.636L2303.73 377.475L2262.45 401.287V448.965V496.642L2303.73 472.804L2345.01 448.965L2386.29 425.126V377.475V329.797L2345.01 353.636Z" stroke="#FF85FF" stroke-width="6" stroke-miterlimit="10" stroke-linejoin="round"/>
<path d="M2345.01 353.636L2303.73 377.475L2262.45 401.287V448.965V496.642L2303.73 472.804L2345.01 448.965L2386.29 425.126V377.475V329.797L2345.01 353.636Z" stroke="#FF85FF" stroke-width="6" stroke-miterlimit="10" stroke-linejoin="round"/>
<path d="M2221.16 377.472L2179.88 353.633V401.284V448.962L2221.16 472.801L2262.45 496.64V448.962V401.284L2221.16 377.472Z" stroke="#FF85FF" stroke-width="6" stroke-miterlimit="10" stroke-linejoin="round"/>
<path d="M2221.16 377.472L2179.88 353.633V401.284V448.962L2221.16 472.801L2262.45 496.64V448.962V401.284L2221.16 377.472Z" stroke="#FF85FF" stroke-width="6" stroke-miterlimit="10" stroke-linejoin="round"/>
<path d="M2221.16 472.8L2179.88 448.961V496.639V544.29L2221.16 520.451L2262.45 496.639L2221.16 472.8Z" stroke="#FF85FF" stroke-width="6" stroke-miterlimit="10" stroke-linejoin="round"/>
<path d="M2221.16 472.8L2179.88 448.961V496.639V544.29L2221.16 520.451L2262.45 496.639L2221.16 472.8Z" stroke="#FF85FF" stroke-width="6" stroke-miterlimit="10" stroke-linejoin="round"/>
<path d="M2138.6 425.12L2097.32 401.281V448.959V496.637L2138.6 520.449L2179.88 544.288V496.637V448.959L2138.6 425.12Z" stroke="#FF85FF" stroke-width="6" stroke-miterlimit="10" stroke-linejoin="round"/>
<path d="M2138.6 425.12L2097.32 401.281V448.959V496.637L2138.6 520.449L2179.88 544.288V496.637V448.959L2138.6 425.12Z" stroke="#FF85FF" stroke-width="6" stroke-miterlimit="10" stroke-linejoin="round"/>
<path d="M2345.01 305.948L2303.73 282.109L2262.45 305.948L2221.16 329.787L2179.88 353.626L2221.16 377.465L2262.45 401.277L2303.73 377.465L2345.01 353.626L2386.29 329.787L2345.01 305.948Z" stroke="#FF85FF" stroke-width="6" stroke-miterlimit="10" stroke-linejoin="round"/>
<path d="M2345.01 305.948L2303.73 282.109L2262.45 305.948L2221.16 329.787L2179.88 353.626L2221.16 377.465L2262.45 401.277L2303.73 377.465L2345.01 353.626L2386.29 329.787L2345.01 305.948Z" stroke="#FF85FF" stroke-width="6" stroke-miterlimit="10" stroke-linejoin="round"/>
<path d="M2262.44 162.945L2221.16 139.133L2179.88 162.945L2138.6 186.784L2097.32 210.623L2138.6 234.462L2179.88 258.301L2221.16 234.462L2262.44 210.623L2303.73 186.784L2262.44 162.945Z" stroke="#FF85FF" stroke-width="6" stroke-miterlimit="10" stroke-linejoin="round"/>
<path d="M2262.44 162.945L2221.16 139.133L2179.88 162.945L2138.6 186.784L2097.32 210.623L2138.6 234.462L2179.88 258.301L2221.16 234.462L2262.44 210.623L2303.73 186.784L2262.44 162.945Z" stroke="#FF85FF" stroke-width="6" stroke-miterlimit="10" stroke-linejoin="round"/>
<path d="M1889.78 18.0107L1848.5 41.8496L1889.78 65.6884L1931.06 89.5273V41.8496V-5.82812L1889.78 18.0107Z" stroke="#FF85FF" stroke-width="6" stroke-miterlimit="10" stroke-linejoin="round"/>
<path d="M1889.78 18.0107L1848.5 41.8496L1889.78 65.6884L1931.06 89.5273V41.8496V-5.82812L1889.78 18.0107Z" stroke="#FF85FF" stroke-width="6" stroke-miterlimit="10" stroke-linejoin="round"/>
<path d="M2178.72 -53.4815L2137.44 -29.6426L2096.16 -5.83017V41.8476V89.5253L2137.44 65.6864L2178.72 41.8476L2220.01 18.0087V-29.6426V-77.3203L2178.72 -53.4815Z" stroke="#FF85FF" stroke-width="6" stroke-miterlimit="10" stroke-linejoin="round"/>
<path d="M2178.72 -53.4815L2137.44 -29.6426L2096.16 -5.83017V41.8476V89.5253L2137.44 65.6864L2178.72 41.8476L2220.01 18.0087V-29.6426V-77.3203L2178.72 -53.4815Z" stroke="#FF85FF" stroke-width="6" stroke-miterlimit="10" stroke-linejoin="round"/>
<path d="M2054.88 65.6826L2013.59 41.8438V89.5215V137.173L2054.88 113.334L2096.16 89.5215L2054.88 65.6826Z" stroke="#FF85FF" stroke-width="6" stroke-miterlimit="10" stroke-linejoin="round"/>
<path d="M2054.88 65.6826L2013.59 41.8438V89.5215V137.173L2054.88 113.334L2096.16 89.5215L2054.88 65.6826Z" stroke="#FF85FF" stroke-width="6" stroke-miterlimit="10" stroke-linejoin="round"/>
<path d="M1972.32 18.0107L1931.07 -5.82812V41.8496V89.5273L1972.32 113.34L2013.6 137.179V89.5273V41.8496L1972.32 18.0107Z" stroke="#FF85FF" stroke-width="6" stroke-miterlimit="10" stroke-linejoin="round"/>
<path d="M1972.32 18.0107L1931.07 -5.82812V41.8496V89.5273L1972.32 113.34L2013.6 137.179V89.5273V41.8496L1972.32 18.0107Z" stroke="#FF85FF" stroke-width="6" stroke-miterlimit="10" stroke-linejoin="round"/>
<path d="M1972.32 113.328L1931.07 89.5156V137.167V184.845L1972.32 161.006L2013.6 137.167L1972.32 113.328Z" stroke="#FF85FF" stroke-width="6" stroke-miterlimit="10" stroke-linejoin="round"/>
<path d="M1972.32 113.328L1931.07 89.5156V137.167V184.845L1972.32 161.006L2013.6 137.167L1972.32 113.328Z" stroke="#FF85FF" stroke-width="6" stroke-miterlimit="10" stroke-linejoin="round"/>
<path d="M1889.78 65.6826L1848.5 41.8438V89.5215V137.173L1889.78 161.012L1931.06 184.85V137.173V89.5215L1889.78 65.6826Z" stroke="#FF85FF" stroke-width="6" stroke-miterlimit="10" stroke-linejoin="round"/>
<path d="M1889.78 65.6826L1848.5 41.8438V89.5215V137.173L1889.78 161.012L1931.06 184.85V137.173V89.5215L1889.78 65.6826Z" stroke="#FF85FF" stroke-width="6" stroke-miterlimit="10" stroke-linejoin="round"/>
<path d="M1972.32 -29.6455L1931.07 -5.83309L1972.32 18.0058L2013.6 41.8446V-5.83309V-53.4844L1972.32 -29.6455Z" stroke="#FF85FF" stroke-width="6" stroke-miterlimit="10" stroke-linejoin="round"/>
<path d="M1972.32 -29.6455L1931.07 -5.83309L1972.32 18.0058L2013.6 41.8446V-5.83309V-53.4844L1972.32 -29.6455Z" stroke="#FF85FF" stroke-width="6" stroke-miterlimit="10" stroke-linejoin="round"/>
<path d="M2054.88 -29.6455L2013.59 -53.4844V-5.83309V41.8446L2054.88 65.6835L2096.16 89.5223V41.8446V-5.83309L2054.88 -29.6455Z" stroke="#FF85FF" stroke-width="6" stroke-miterlimit="10" stroke-linejoin="round"/>
<path d="M2054.88 -29.6455L2013.59 -53.4844V-5.83309V41.8446L2054.88 65.6835L2096.16 89.5223V41.8446V-5.83309L2054.88 -29.6455Z" stroke="#FF85FF" stroke-width="6" stroke-miterlimit="10" stroke-linejoin="round"/>
<path d="M386.687 406L412.287 316.4H436.607L462.079 406H447.871L441.983 384.88H406.911L401.023 406H386.687ZM410.367 372.08H438.527L425.471 324.976H423.423L410.367 372.08ZM474.218 406V316.4H488.042V406H474.218ZM570.447 407.792C564.047 407.792 558.33 406.427 553.295 403.696C548.26 400.88 544.292 396.784 541.391 391.408C538.49 386.032 537.039 379.461 537.039 371.696V350.704C537.039 339.013 540.239 330.096 546.639 323.952C553.039 317.723 561.7 314.608 572.623 314.608C583.375 314.608 591.652 317.552 597.455 323.44C603.258 329.243 606.159 337.051 606.159 346.864V347.504H592.463V346.48C592.463 342.811 591.738 339.525 590.287 336.624C588.836 333.637 586.66 331.291 583.759 329.584C580.858 327.877 577.146 327.024 572.623 327.024C565.796 327.024 560.463 329.115 556.623 333.296C552.783 337.392 550.863 343.109 550.863 350.448V371.952C550.863 379.205 552.783 384.965 556.623 389.232C560.463 393.413 565.839 395.504 572.751 395.504C579.578 395.504 584.57 393.627 587.727 389.872C590.884 386.117 592.463 381.253 592.463 375.28V373.616H568.399V361.712H606.159V406H593.359V396.912H591.311C590.543 398.533 589.391 400.197 587.855 401.904C586.404 403.611 584.271 405.019 581.455 406.128C578.724 407.237 575.055 407.792 570.447 407.792ZM648.544 407.152C643.765 407.152 639.499 406.085 635.744 403.952C631.989 401.819 629.045 398.789 626.912 394.864C624.779 390.939 623.712 386.245 623.712 380.784V342.896H636.896V379.888C636.896 385.349 638.261 389.403 640.992 392.048C643.723 394.608 647.52 395.888 652.384 395.888C657.76 395.888 662.069 394.096 665.312 390.512C668.64 386.843 670.304 381.595 670.304 374.768V342.896H683.488V406H670.56V396.528H668.512C667.317 399.088 665.184 401.52 662.112 403.824C659.04 406.043 654.517 407.152 648.544 407.152ZM702.977 406V342.896H716.161V406H702.977ZM709.633 334.32C707.073 334.32 704.897 333.509 703.105 331.888C701.398 330.181 700.545 328.005 700.545 325.36C700.545 322.715 701.398 320.581 703.105 318.96C704.897 317.253 707.073 316.4 709.633 316.4C712.278 316.4 714.454 317.253 716.161 318.96C717.868 320.581 718.721 322.715 718.721 325.36C718.721 328.005 717.868 330.181 716.161 331.888C714.454 333.509 712.278 334.32 709.633 334.32ZM761.839 407.792C756.634 407.792 751.812 406.512 747.375 403.952C742.938 401.392 739.354 397.723 736.623 392.944C733.978 388.08 732.655 382.235 732.655 375.408V373.488C732.655 366.747 733.978 360.944 736.623 356.08C739.268 351.216 742.81 347.504 747.247 344.944C751.684 342.384 756.548 341.104 761.839 341.104C765.935 341.104 769.348 341.616 772.079 342.64C774.895 343.664 777.199 344.987 778.991 346.608C780.783 348.144 782.148 349.765 783.087 351.472H785.135V316.4H798.319V406H785.391V397.04H783.343C781.722 399.771 779.247 402.245 775.919 404.464C772.676 406.683 767.983 407.792 761.839 407.792ZM765.551 396.272C771.268 396.272 775.962 394.437 779.631 390.768C783.386 387.099 785.263 381.851 785.263 375.024V373.872C785.263 367.131 783.428 361.925 779.759 358.256C776.09 354.587 771.354 352.752 765.551 352.752C759.919 352.752 755.226 354.587 751.471 358.256C747.802 361.925 745.967 367.131 745.967 373.872V375.024C745.967 381.851 747.802 387.099 751.471 390.768C755.226 394.437 759.919 396.272 765.551 396.272ZM846.655 407.792C840.255 407.792 834.666 406.469 829.887 403.824C825.108 401.093 821.354 397.296 818.623 392.432C815.978 387.483 814.655 381.765 814.655 375.28V373.744C814.655 367.173 815.978 361.456 818.623 356.592C821.268 351.643 824.938 347.845 829.631 345.2C834.41 342.469 839.914 341.104 846.143 341.104C852.202 341.104 857.492 342.469 862.015 345.2C866.623 347.845 870.207 351.557 872.767 356.336C875.327 361.115 876.607 366.704 876.607 373.104V378.096H828.095C828.266 383.643 830.1 388.08 833.599 391.408C837.183 394.651 841.62 396.272 846.911 396.272C851.86 396.272 855.572 395.163 858.047 392.944C860.607 390.725 862.57 388.165 863.935 385.264L874.815 390.896C873.62 393.285 871.871 395.803 869.567 398.448C867.348 401.093 864.404 403.312 860.735 405.104C857.066 406.896 852.372 407.792 846.655 407.792ZM828.223 367.984H863.167C862.826 363.205 861.119 359.493 858.047 356.848C854.975 354.117 850.964 352.752 846.015 352.752C841.066 352.752 837.012 354.117 833.855 356.848C830.783 359.493 828.906 363.205 828.223 367.984Z" fill="white"/>
<path d="M383.999 188H665.058V268H383.999V188Z" fill="white"/>
<path d="M652.438 245.426C651.89 245.58 651.426 245.664 650.963 245.664C649.318 245.664 648.546 244.964 648.546 242.95V227.743C648.546 219.756 642.151 215.867 634.591 215.867C628.814 215.867 625.71 216.567 619.54 219.042L618.163 227.1L626.187 227.953L627.325 224.008C628.97 223.155 630.6 223.001 632.707 223.001C638.399 223.001 638.484 227.268 638.484 230.835V231.995C636.685 231.758 634.661 231.688 632.707 231.688C624.683 231.688 616.336 233.702 616.336 242.319C616.336 249.607 622.097 252.335 627.171 252.335C632.862 252.335 636.445 248.922 638.469 245.355C638.933 249.621 641.504 252.335 646.185 252.335C648.363 252.335 650.625 251.72 652.494 250.698L652.438 245.425V245.426ZM630.853 245.202C627.817 245.202 626.721 243.412 626.721 241.159C626.721 237.354 629.841 236.347 633.424 236.347C635.055 236.347 636.853 236.585 638.498 236.809C638.259 242.642 634.436 245.202 630.853 245.202ZM617.348 198.172L602.142 251.567H592.235L607.44 198.173H617.348V198.172ZM596.929 198.172L581.723 251.567H571.83L587.036 198.173H596.929V198.172ZM554.713 216.568H565.24V229.129H554.713V216.568ZM554.713 238.991H565.24V251.567H554.713V238.991ZM539.396 238.529L547.35 239.299L545.172 251.567H514.452L513.44 246.293L532.777 224.177H521.787L520.228 229.605L512.976 228.821L514.227 216.554H545.101L545.889 221.827L526.382 243.957H537.766L539.396 238.529ZM489.016 215.869C476.382 215.869 470.143 224.331 470.143 234.571C470.143 245.748 477.633 252.336 488.467 252.336C499.696 252.336 507.805 245.272 507.805 234.096C507.805 224.317 501.636 215.868 489.016 215.868V215.869ZM488.777 244.656C483.325 244.656 480.514 239.998 480.514 233.941C480.514 227.339 483.704 223.548 488.862 223.548C493.611 223.548 497.434 226.723 497.434 233.788C497.434 240.46 494.005 244.656 488.777 244.656ZM461.093 243.957H465.772V251.567H451.031V231.857C451.031 225.8 449.007 223.477 445.03 223.477C440.196 223.477 438.243 226.891 438.243 231.787V243.957H442.922V251.567H428.195V231.857C428.195 225.8 426.171 223.477 422.194 223.477C417.36 223.477 415.406 226.891 415.406 231.787V243.957H422.11V251.567H400.679V243.957H405.359V224.163H400.679V216.553H415.406V221.827C417.515 218.107 421.183 215.854 426.087 215.854C431.161 215.854 435.826 218.26 437.554 223.38C439.508 218.722 443.484 215.854 449.021 215.854C455.33 215.854 461.107 219.659 461.107 227.954V243.957H461.093Z" fill="black"/>
</g>
<defs>
<filter id="filter0_f_166_3005" x="1259" y="-370" width="1131.96" height="1246" filterUnits="userSpaceOnUse" color-interpolation-filters="sRGB">
<feFlood flood-opacity="0" result="BackgroundImageFix"/>
<feBlend mode="normal" in="SourceGraphic" in2="BackgroundImageFix" result="shape"/>
<feGaussianBlur stdDeviation="24" result="effect1_foregroundBlur_166_3005"/>
</filter>
<filter id="filter1_f_166_3005" x="1699" y="-152" width="1083.96" height="1198" filterUnits="userSpaceOnUse" color-interpolation-filters="sRGB">
<feFlood flood-opacity="0" result="BackgroundImageFix"/>
<feBlend mode="normal" in="SourceGraphic" in2="BackgroundImageFix" result="shape"/>
<feGaussianBlur stdDeviation="12" result="effect1_foregroundBlur_166_3005"/>
</filter>
<linearGradient id="paint0_linear_166_3005" x1="353" y1="306" x2="567" y2="1441" gradientUnits="userSpaceOnUse">
<stop/>
<stop offset="1" stop-color="#4579FF"/>
</linearGradient>
<clipPath id="clip0_166_3005">
<rect width="2302" height="610" fill="white"/>
</clipPath>
</defs>
</svg>
