<svg id="Layer_1" xmlns="http://www.w3.org/2000/svg" viewBox="0 0 400 400"><defs><style>.cls-1{fill:#fff}.cls-7{stroke:#010101;stroke-linecap:round;stroke-linejoin:round;stroke-width:8px;fill:none}</style></defs><path d="M268.61 307.99c38.15-39.87 38.15-104.51 0-144.38-38.15-39.87-100-39.87-138.15 0-38.15 39.87-38.15 104.51 0 144.38 38.15 39.87 100 39.87 138.15 0Z" style="fill:#84c7ee"/><path class="cls-1" d="M244.64 275.27c31.57-31.57 31.57-82.75 0-114.32-31.57-31.57-82.75-31.57-114.31 0-31.57 31.57-31.57 82.75 0 114.32 31.57 31.57 82.75 31.57 114.31 0Z"/><path d="M246.22 277.63c25.79-26.95 25.79-70.64 0-97.59-25.79-26.95-67.59-26.95-93.38 0-25.79 26.95-25.79 70.64 0 97.59 25.79 26.95 67.59 26.95 93.38 0Z" style="fill:#add7f3"/><path class="cls-1" d="M211.16 243.95c13.08-13.08 13.08-34.28 0-47.36s-34.28-13.08-47.36 0c-13.08 13.08-13.08 34.28 0 47.36 13.08 13.08 34.28 13.08 47.36 0Z"/><path class="cls-7" d="M271.45 303.1c46.4-46.4 46.4-121.62 0-168.02-46.4-46.4-121.62-46.4-168.02 0-46.4 46.4-46.4 121.62 0 168.02 46.4 46.4 121.62 46.4 168.02 0Z"/><path class="cls-7" d="M245.18 276.67c31.89-31.89 31.89-83.59 0-115.48s-83.59-31.89-115.48 0-31.89 83.59 0 115.48 83.59 31.89 115.48 0Z"/><path d="M213.71 234.91c6.61-8.07 8.32-16.51 0-22.81-8.32-6.3-21.81-6.3-30.13 0s-8.32 21.23 0 27.53c8.32 6.3 21.17 6.21 30.13-4.72Z" style="fill:#d6edea"/><path class="cls-7" d="M209.56 240.09c12.2-12.2 12.2-31.97 0-44.17-12.2-12.2-31.97-12.2-44.17 0s-12.2 31.97 0 44.17c12.2 12.2 31.97 12.2 44.17 0Z"/><path d="m319.74 115.32 19.43-1.91-11.28-11.28-13.83 1.36 1.36-13.83-11.28-11.28-1.91 19.43-8.76-8.76-1.91 19.43-8.76-8.76-2.41 24.52-93.73 83.14c-3.93 3.48-4.11 9.56-.4 13.27h0a9.113 9.113 0 0 0 12.5.37l94.54-83.86 24.52-2.41-8.76-8.76 19.43-1.91-8.76-8.76Z" style="stroke:#010101;stroke-linecap:round;stroke-linejoin:round;stroke-width:8px;fill:#fff"/><path d="m287.44 127.23-98.09 87.5a5.053 5.053 0 0 0-1.72 3.68 5.08 5.08 0 0 0 1.5 3.77c1.91 1.91 5 2 7.02.21l98.91-88.23c.63-.56 1.42-.91 2.26-.99l16.11-1.58-2.78-2.78a4.014 4.014 0 0 1-.94-4.18 3.994 3.994 0 0 1 3.38-2.63l11.01-1.08-2.78-2.78a4.014 4.014 0 0 1-.94-4.18 3.994 3.994 0 0 1 3.38-2.63l11.01-1.08-4.21-5.68-11.94 1.17c-1.19.12-2.12 1.41-2.97.56s-1.27-2.03-1.15-3.22l1.17-11.94-3.96-3.96.5 16.35" style="fill:#08b6a9"/><path class="cls-7" d="m319.74 115.32 19.43-1.91-11.28-11.28-13.83 1.36 1.36-13.83-11.28-11.28-1.91 19.43-8.76-8.76-1.91 19.43-8.76-8.76-2.41 24.52-93.73 83.14c-3.93 3.48-4.11 9.56-.4 13.27h0a9.113 9.113 0 0 0 12.5.37l94.54-83.86 24.52-2.41-8.76-8.76 19.43-1.91-8.76-8.76Z"/></svg>