<svg id="Layer_1" xmlns="http://www.w3.org/2000/svg" viewBox="0 0 400 400"><defs><style>.cls-2{fill:#08b6a9}.cls-4,.cls-6{fill:none;stroke:#010101;stroke-width:8px;stroke-miterlimit:10}.cls-4{stroke-linecap:square}</style></defs><path d="M74.95 222.62c0-49.27 29.08-91.75 71.01-111.22m115.05 216.04c-18.52 11.25-40.26 17.73-63.52 17.73s-45.03-6.49-63.56-17.75m118.3-214.48c40.21 20.1 67.81 61.67 67.81 109.67" style="stroke-linecap:round;stroke-miterlimit:10;fill:none;stroke:#010101;stroke-width:8px"/><path class="cls-2" d="M92.31 279.54c6.33.39 11.53-5.93 11.21-13.61-.27-6.58-4.68-11.93-10.1-12.26-6.33-.39-11.53 5.93-11.21 13.61.28 6.58 4.68 11.92 10.1 12.25Zm20.16 39.55c2.38 0 4.14-2.87 3.68-5.94-1.98-13.05-10.06-24.73-19.74-24.73s-17.76 11.68-19.73 24.73c-.47 3.07 1.3 5.94 3.68 5.94h32.11Z"/><path class="cls-6" d="M85.98 282.62c10.08.51 18.36-7.78 17.85-17.86-.44-8.64-7.45-15.65-16.09-16.09-10.09-.51-18.38 7.78-17.86 17.87.44 8.63 7.46 15.65 16.1 16.08Zm25.72 36.63c3.54 0 6.17-3.24 5.48-6.71-2.94-14.75-14.98-27.94-29.39-27.94s-26.44 13.19-29.38 27.94c-.69 3.47 1.94 6.71 5.48 6.71h47.81Z"/><path class="cls-2" d="M204.37 83.72c6.33.38 11.53-5.93 11.21-13.61-.27-6.58-4.68-11.93-10.1-12.26-6.33-.39-11.54 5.93-11.21 13.61.28 6.58 4.68 11.92 10.1 12.25Zm20.16 39.55c2.38 0 4.14-2.87 3.68-5.94-1.98-13.06-10.06-24.73-19.74-24.73s-17.76 11.68-19.73 24.73c-.46 3.07 1.3 5.94 3.68 5.94h32.11Z"/><path class="cls-6" d="M198.04 86.79c10.08.51 18.36-7.78 17.85-17.86-.44-8.64-7.46-15.65-16.09-16.09-10.09-.51-18.38 7.78-17.86 17.87.44 8.64 7.46 15.65 16.1 16.08Zm25.72 36.63c3.54 0 6.17-3.24 5.48-6.71-2.94-14.74-14.98-27.94-29.39-27.94s-26.44 13.19-29.38 27.94c-.69 3.47 1.94 6.71 5.48 6.71h47.82Z"/><path class="cls-2" d="M319.95 279.54c6.33.39 11.53-5.93 11.2-13.61-.27-6.58-4.68-11.93-10.1-12.26-6.33-.39-11.54 5.93-11.21 13.61.28 6.58 4.68 11.92 10.11 12.25Zm20.16 39.55c2.38 0 4.14-2.87 3.68-5.94-1.98-13.05-10.06-24.73-19.74-24.73s-17.76 11.68-19.73 24.73c-.47 3.07 1.3 5.94 3.68 5.94h32.11Z"/><path class="cls-6" d="M313.62 282.62c10.08.51 18.36-7.78 17.85-17.86-.44-8.64-7.45-15.65-16.09-16.09-10.09-.51-18.38 7.78-17.86 17.87.44 8.63 7.46 15.65 16.1 16.08Zm25.72 36.63c3.54 0 6.17-3.24 5.48-6.71-2.95-14.75-14.98-27.94-29.39-27.94s-26.44 13.19-29.38 27.94c-.69 3.47 1.94 6.71 5.48 6.71h47.82Z"/><path d="M239.5 269.58c22.48-22.48 22.48-58.93 0-81.41s-58.93-22.48-81.41 0c-22.48 22.48-22.48 58.93 0 81.41 22.48 22.48 58.93 22.48 81.41 0Z" style="fill:#84c7ee"/><path d="M248.54 271.66c27.49-27.49 27.49-72.05 0-99.54-27.49-27.49-72.05-27.49-99.54 0s-27.49 72.05 0 99.54c27.49 27.49 72.05 27.49 99.54 0Z" style="stroke-linejoin:round;stroke-linecap:round;fill:none;stroke:#010101;stroke-width:8px"/><path class="cls-4" d="M199.18 292.56c13.38-.05 24.1-31.6 23.96-70.48-.15-38.87-11.11-70.35-24.49-70.29-13.38.05-24.1 31.6-23.96 70.48.14 38.87 11.11 70.35 24.49 70.29Zm-55.28-27.15c2.84-2.35 5.84-4.51 8.98-6.45"/><path class="cls-4" d="M167.32 251.87c9.68-3.66 20.34-5.71 31.54-5.75 14.14-.05 27.43 3.1 38.99 8.67m7.08 3.84c3.15 1.91 6.17 4.05 9.03 6.38m-110.39-86.22c2.86 2.33 5.87 4.46 9.03 6.38m14.49 6.99c9.7 3.59 20.38 5.56 31.58 5.52 14.14-.05 27.41-3.3 38.93-8.96m7.05-3.9c3.14-1.94 6.14-4.09 8.98-6.45m-125.25 43.92 9.54-.04m14.32-.05 100.22-.37m7.16-.03 9.54-.04"/></svg>